<svg xmlns="http://www.w3.org/2000/svg" xmlns:xlink="http://www.w3.org/1999/xlink" viewBox="0 0 664 373" width="664" height="373"><path d="M 193.000,186.500 C 189.773,189.300 190.000,189.500 187.000,192.500" stroke-width="4.029" stroke="black" fill="none" stroke-linecap="round"></path><path d="M 187.000,192.500 C 183.670,197.142 183.273,196.800 180.000,201.500" stroke-width="3.542" stroke="black" fill="none" stroke-linecap="round"></path><path d="M 180.000,201.500 C 175.500,206.500 175.670,206.642 171.000,211.500" stroke-width="3.251" stroke="black" fill="none" stroke-linecap="round"></path><path d="M 171.000,211.500 C 166.485,216.487 166.500,216.500 162.000,221.500" stroke-width="3.172" stroke="black" fill="none" stroke-linecap="round"></path><path d="M 162.000,221.500 C 158.246,226.254 157.985,225.987 154.000,230.500" stroke-width="3.198" stroke="black" fill="none" stroke-linecap="round"></path><path d="M 154.000,230.500 C 150.900,232.890 151.246,233.254 148.000,235.500" stroke-width="3.631" stroke="black" fill="none" stroke-linecap="round"></path><path d="M 148.000,235.500 C 143.546,240.559 145.900,237.390 144.000,239.500" stroke-width="4.024" stroke="black" fill="none" stroke-linecap="round"></path><path d="M 144.000,239.500 C 146.780,233.423 145.046,237.059 151.000,228.500" stroke-width="4.616" stroke="black" fill="none" stroke-linecap="round"></path><path d="M 151.000,228.500 C 158.748,219.092 158.780,219.423 168.000,211.500" stroke-width="2.737" stroke="black" fill="none" stroke-linecap="round"></path><path d="M 168.000,211.500 C 178.345,202.839 178.248,203.092 190.000,196.500" stroke-width="2.331" stroke="black" fill="none" stroke-linecap="round"></path><path d="M 190.000,196.500 C 207.054,187.325 206.845,187.339 225.000,180.500" stroke-width="1.870" stroke="black" fill="none" stroke-linecap="round"></path><path d="M 225.000,180.500 C 242.782,174.123 242.554,173.825 261.000,169.500" stroke-width="1.731" stroke="black" fill="none" stroke-linecap="round"></path><path d="M 261.000,169.500 C 276.444,166.174 276.282,165.623 292.000,163.500" stroke-width="1.891" stroke="black" fill="none" stroke-linecap="round"></path><path d="M 292.000,163.500 C 308.432,160.307 308.444,160.674 325.000,158.500" stroke-width="1.843" stroke="black" fill="none" stroke-linecap="round"></path><path d="M 325.000,158.500 C 335.995,157.797 335.932,157.307 347.000,157.500" stroke-width="2.181" stroke="black" fill="none" stroke-linecap="round"></path><path d="M 347.000,157.500 C 354.614,156.797 354.495,157.297 362.000,157.500" stroke-width="2.690" stroke="black" fill="none" stroke-linecap="round"></path><path d="M 362.000,157.500 C 366.632,157.106 365.114,157.797 368.000,159.500" stroke-width="3.543" stroke="black" fill="none" stroke-linecap="round"></path><path d="M 368.000,159.500 C 370.000,165.578 370.632,164.106 370.000,171.500" stroke-width="3.921" stroke="black" fill="none" stroke-linecap="round"></path><path d="M 370.000,171.500 C 369.080,174.529 370.000,174.578 368.000,177.500" stroke-width="4.087" stroke="black" fill="none" stroke-linecap="round"></path><path d="M 368.000,177.500 C 365.819,179.965 367.080,180.029 366.000,182.500" stroke-width="4.171" stroke="black" fill="none" stroke-linecap="round"></path><path d="M 366.000,182.500 C 365.390,189.367 366.319,186.965 369.000,191.500" stroke-width="4.346" stroke="black" fill="none" stroke-linecap="round"></path><path d="M 369.000,191.500 C 378.382,194.319 376.390,195.867 388.000,195.500" stroke-width="2.980" stroke="black" fill="none" stroke-linecap="round"></path><path d="M 388.000,195.500 C 407.018,196.794 406.882,197.819 426.000,198.500" stroke-width="2.046" stroke="black" fill="none" stroke-linecap="round"></path><path d="M 426.000,198.500 C 451.584,200.362 451.518,200.794 477.000,203.500" stroke-width="1.493" stroke="black" fill="none" stroke-linecap="round"></path><path d="M 477.000,203.500 C 492.111,205.522 492.084,205.362 507.000,208.500" stroke-width="1.780" stroke="black" fill="none" stroke-linecap="round"></path><path d="M 507.000,208.500 C 513.977,208.813 512.111,209.522 517.000,211.500" stroke-width="2.707" stroke="black" fill="none" stroke-linecap="round"></path><path d="M 517.000,211.500 C 517.185,214.367 518.477,212.813 516.000,216.500" stroke-width="3.920" stroke="black" fill="none" stroke-linecap="round"></path><path d="M 516.000,216.500 C 512.000,218.389 514.685,218.867 512.000,220.500" stroke-width="4.126" stroke="black" fill="none" stroke-linecap="round"></path><path d="M 512.000,220.500 C 513.556,223.599 512.000,222.889 516.000,225.500" stroke-width="4.693" stroke="black" fill="none" stroke-linecap="round"></path><path d="M 516.000,225.500 C 520.660,225.458 518.056,227.099 521.000,227.500" stroke-width="4.390" stroke="black" fill="none" stroke-linecap="round"></path><path d="M 521.000,227.500 C 520.390,232.986 521.660,231.458 518.000,237.500" stroke-width="4.630" stroke="black" fill="none" stroke-linecap="round"></path><path d="M 518.000,237.500 C 515.124,241.115 515.890,241.486 512.000,244.500" stroke-width="3.832" stroke="black" fill="none" stroke-linecap="round"></path><path d="M 512.000,244.500 C 508.850,247.365 509.124,247.615 506.000,250.500" stroke-width="3.776" stroke="black" fill="none" stroke-linecap="round"></path><path d="M 506.000,250.500 C 504.000,253.000 503.850,252.865 502.000,255.500" stroke-width="3.988" stroke="black" fill="none" stroke-linecap="round"></path><path d="M 502.000,255.500 C 500.623,258.970 500.000,258.000 498.000,260.500" stroke-width="4.468" stroke="black" fill="none" stroke-linecap="round"></path><path d="M 498.000,260.500 C 494.065,261.890 494.623,262.470 490.000,262.500" stroke-width="4.714" stroke="black" fill="none" stroke-linecap="round"></path><path d="M 490.000,262.500 C 484.013,263.306 484.065,263.390 478.000,263.500" stroke-width="3.620" stroke="black" fill="none" stroke-linecap="round"></path><path d="M 478.000,263.500 C 468.496,263.711 468.513,263.806 459.000,263.500" stroke-width="2.816" stroke="black" fill="none" stroke-linecap="round"></path><path d="M 459.000,263.500 C 445.905,263.908 445.996,263.211 433.000,262.500" stroke-width="2.373" stroke="black" fill="none" stroke-linecap="round"></path><path d="M 433.000,262.500 C 418.568,259.509 418.405,260.908 404.000,257.500" stroke-width="2.145" stroke="black" fill="none" stroke-linecap="round"></path><path d="M 404.000,257.500 C 389.498,256.015 389.568,255.509 375.000,254.500" stroke-width="2.036" stroke="black" fill="none" stroke-linecap="round"></path><path d="M 375.000,254.500 C 356.020,252.283 355.998,252.515 337.000,250.500" stroke-width="1.813" stroke="black" fill="none" stroke-linecap="round"></path><path d="M 337.000,250.500 C 324.004,249.446 324.020,249.283 311.000,248.500" stroke-width="2.080" stroke="black" fill="none" stroke-linecap="round"></path><path d="M 311.000,248.500 C 296.511,247.175 296.504,247.446 282.000,246.500" stroke-width="2.077" stroke="black" fill="none" stroke-linecap="round"></path><path d="M 282.000,246.500 C 275.000,246.500 275.011,246.175 268.000,246.500" stroke-width="2.647" stroke="black" fill="none" stroke-linecap="round"></path><path d="M 268.000,246.500 C 264.500,246.500 264.500,246.500 261.000,246.500" stroke-width="3.460" stroke="black" fill="none" stroke-linecap="round"></path><path d="M 261.000,246.500 C 255.454,245.138 258.000,246.500 255.000,246.500" stroke-width="4.278" stroke="black" fill="none" stroke-linecap="round"></path><path d="M 255.000,246.500 C 256.254,250.440 254.454,248.138 259.000,252.500" stroke-width="4.906" stroke="black" fill="none" stroke-linecap="round"></path><path d="M 259.000,252.500 C 262.931,254.215 262.254,254.940 267.000,255.500" stroke-width="3.968" stroke="black" fill="none" stroke-linecap="round"></path><path d="M 267.000,255.500 C 272.363,257.891 272.431,257.215 278.000,258.500" stroke-width="3.527" stroke="black" fill="none" stroke-linecap="round"></path><path d="M 278.000,258.500 C 291.147,260.418 290.863,259.891 304.000,259.500" stroke-width="2.428" stroke="black" fill="none" stroke-linecap="round"></path><path d="M 304.000,259.500 C 312.198,258.101 312.147,258.918 320.000,255.500" stroke-width="2.712" stroke="black" fill="none" stroke-linecap="round"></path><path d="M 320.000,255.500 C 328.837,252.681 328.698,252.601 337.000,248.500" stroke-width="2.705" stroke="black" fill="none" stroke-linecap="round"></path><path d="M 337.000,248.500 C 349.289,241.952 349.337,242.181 361.000,234.500" stroke-width="2.279" stroke="black" fill="none" stroke-linecap="round"></path><path d="M 361.000,234.500 C 370.884,227.328 371.289,227.952 381.000,220.500" stroke-width="2.300" stroke="black" fill="none" stroke-linecap="round"></path><path d="M 381.000,220.500 C 390.661,213.408 390.884,213.828 401.000,207.500" stroke-width="2.382" stroke="black" fill="none" stroke-linecap="round"></path><path d="M 401.000,207.500 C 411.756,201.436 411.661,201.408 423.000,196.500" stroke-width="2.264" stroke="black" fill="none" stroke-linecap="round"></path><path d="M 423.000,196.500 C 432.401,192.700 432.256,192.436 442.000,189.500" stroke-width="2.468" stroke="black" fill="none" stroke-linecap="round"></path><path d="M 442.000,189.500 C 450.770,187.686 450.401,186.700 459.000,184.500" stroke-width="2.662" stroke="black" fill="none" stroke-linecap="round"></path><path d="M 459.000,184.500 C 465.801,180.499 466.270,181.686 473.000,177.500" stroke-width="2.786" stroke="black" fill="none" stroke-linecap="round"></path><path d="M 473.000,177.500 C 478.129,176.326 477.801,175.499 483.000,174.500" stroke-width="3.286" stroke="black" fill="none" stroke-linecap="round"></path><path d="M 483.000,174.500 C 486.152,173.253 486.129,173.326 489.000,171.500" stroke-width="3.776" stroke="black" fill="none" stroke-linecap="round"></path><path d="M 489.000,171.500 C 492.424,168.884 492.652,169.253 496.000,166.500" stroke-width="3.693" stroke="black" fill="none" stroke-linecap="round"></path><path d="M 496.000,166.500 C 498.308,164.479 498.424,164.884 501.000,163.500" stroke-width="4.405" stroke="black" fill="none" stroke-linecap="round"></path><path d="M 501.000,163.500 C 504.339,161.502 503.808,162.479 507.000,162.500" stroke-width="4.897" stroke="black" fill="none" stroke-linecap="round"></path><path d="M 507.000,162.500 C 512.081,165.892 512.339,164.502 517.000,169.500" stroke-width="4.341" stroke="black" fill="none" stroke-linecap="round"></path><path d="M 517.000,169.500 C 519.314,171.791 519.581,171.392 522.000,173.500" stroke-width="4.159" stroke="black" fill="none" stroke-linecap="round"></path><path d="M 522.000,173.500 C 524.912,176.243 524.814,175.291 528.000,176.500" stroke-width="4.689" stroke="black" fill="none" stroke-linecap="round"></path><path d="M 528.000,176.500 C 531.315,176.066 530.912,176.743 534.000,174.500" stroke-width="4.711" stroke="black" fill="none" stroke-linecap="round"></path><path d="M 534.000,174.500 C 537.000,172.000 537.315,172.566 540.000,169.500" stroke-width="4.018" stroke="black" fill="none" stroke-linecap="round"></path><path d="M 540.000,169.500 C 542.851,166.790 543.000,167.000 546.000,164.500" stroke-width="3.951" stroke="black" fill="none" stroke-linecap="round"></path></svg>